<svg id="Capa_1" enable-background="new 0 0 512 512" height="512" viewBox="0 0 512 512" width="512" xmlns="http://www.w3.org/2000/svg"><g><path d="m363.378 176.136h-37.826c-5.957 0-10.805-4.847-10.805-10.805v-28.032c0-5.958 4.847-10.805 10.805-10.805h37.826c4.204 0 7.612 3.408 7.612 7.612s-3.407 7.611-7.612 7.611h-33.408v19.196h33.407c4.204 0 7.612 3.408 7.612 7.611 0 4.205-3.407 7.612-7.611 7.612z" fill="#7d8c97"/><path d="m429.864 356.342-56.311-12.066c-1.497-.321-3.06.052-4.254 1.016-1.191.963-1.884 2.414-1.884 3.946v36.801c0 2.802 2.272 5.074 5.074 5.074h67.201c2.803 0 5.074-2.272 5.074-5.074v-11.263c.001-8.831-6.265-16.584-14.9-18.434z" fill="#62a4fb"/><path d="m504.388 393.65h-134.481c-4.204 0-7.611-3.408-7.611-7.611s3.407-7.612 7.611-7.612h134.482c4.204 0 7.612 3.408 7.612 7.612s-3.408 7.611-7.613 7.611z" fill="#62a4fb"/><path d="m353.229 108.558v257.609h33.354v-257.609c0-1.176-.953-2.129-2.129-2.129h-29.096c-1.176 0-2.129.953-2.129 2.129z" fill="#5c6c75"/><path d="m258.743 241.612c-2.946 0-5.751-1.721-6.992-4.598l-11.81-27.367c-1.666-3.86.113-8.339 3.972-10.004 3.859-1.666 8.34.114 10.004 3.973l11.81 27.367c1.666 3.86-.113 8.339-3.972 10.004-.982.424-2.006.625-3.012.625z" fill="#5c6c75"/><path d="m313.013 314.991-27.945 12.059-19.105-44.273c-1.601-3.711-3.974-7.039-6.961-9.762s-5.36-6.051-6.961-9.762l-7.341-17.011c-1.243-2.88.084-6.221 2.964-7.464l22.151-9.559c2.88-1.243 6.221.084 7.464 2.964z" fill="#7d8c97"/><path d="m158.658 254.04-3.442-44.288c-1.077-13.862-12.64-24.561-26.543-24.561h-4.295c-2.482 0-4.437 2.114-4.245 4.588l7.599 97.793h73.762c2.352 0 4.258-1.906 4.258-4.258v-11.666c0-9.724-7.883-17.608-17.608-17.608z" fill="#5ecfb4"/><path d="m223.797 353.393h-96.064v-65.822h76.587c10.757 0 19.478 8.72 19.478 19.478v46.344z" fill="#7d8c97"/><path d="m204.319 287.572h-20.297c10.757 0 19.478 8.72 19.478 19.478v46.344h20.297v-46.344c0-10.758-8.721-19.478-19.478-19.478z" fill="#5c6c75"/><path d="m363.949 370.697h-271.878c-4.204 0-7.611-3.408-7.611-7.611v-252.598c0-6.436 5.236-11.671 11.671-11.671h136.804c21.846 0 41.098 13.149 49.048 33.498l89.057 228.002c.915 2.342.613 4.985-.805 7.062-1.418 2.076-3.771 3.318-6.286 3.318zm-264.266-15.223h253.122l-85.003-217.621c-5.65-14.466-19.337-23.813-34.867-23.813h-133.252z" fill="#5c6c75"/><path d="m371.04 360.317-34.494-88.309c-1.363-3.488-5.054-5.469-8.718-4.667l-20.148 4.408c-22.017 4.817-40.282 19.21-50.116 39.489l-9.521 19.64h-61.417c-14.033 0-27.121-7.542-34.157-19.684l-15.448-26.655c-6.963-12.017-19.918-19.483-33.808-19.483h-3.531v-21.13c0-2.441-1.17-4.733-3.147-6.165-1.977-1.431-4.518-1.83-6.839-1.066l-63.815 20.955c-7.621 2.502-12.742 9.574-12.742 17.596v110.792c0 4.204 3.407 7.611 7.611 7.611h343.199c4.204 0 7.611-3.408 7.611-7.611v-22.952c.001-.948-.175-1.887-.52-2.769z" fill="#f29b4e"/><path d="m363.949 377.65h-343.199c-4.204 0-7.611-3.408-7.611-7.611v16c0 4.204 3.407 7.611 7.611 7.611h343.199c4.204 0 7.611-3.408 7.611-7.611v-16c.001 4.203-3.406 7.611-7.611 7.611z" fill="#ef7d31"/><ellipse cx="50.097" cy="363.086" fill="#7d8c97" rx="50.097" ry="50.097" transform="matrix(.98 -.2 .2 .98 -71.638 17.367)"/><path d="m92.69 336.716c.545 2.96.844 6.006.844 9.123 0 27.668-22.429 50.097-50.097 50.097-17.99 0-33.758-9.488-42.593-23.727 4.291 23.309 24.702 40.974 49.253 40.974 27.668 0 50.097-22.429 50.097-50.097 0-9.678-2.751-18.709-7.504-26.37z" fill="#5c6c75"/><ellipse cx="50.097" cy="363.086" fill="#d7e3f2" rx="17.247" ry="17.247" transform="matrix(.973 -.23 .23 .973 -82.08 21.223)"/><ellipse cx="346.703" cy="363.086" fill="#7d8c97" rx="50.097" ry="50.097" transform="matrix(.956 -.293 .293 .956 -91.17 117.522)"/><path d="m389.296 336.716c.545 2.96.844 6.006.844 9.123 0 27.668-22.429 50.097-50.097 50.097-17.99 0-33.758-9.488-42.593-23.727 4.291 23.309 24.702 40.974 49.253 40.974 27.668 0 50.097-22.429 50.097-50.097 0-9.678-2.752-18.71-7.504-26.37z" fill="#5c6c75"/><ellipse cx="346.703" cy="363.086" fill="#d7e3f2" rx="17.247" ry="17.247" transform="matrix(.965 -.263 .263 .965 -83.217 103.85)"/><path d="m226.409 223.103c-2.946 0-5.751-1.721-6.992-4.598-1.666-3.86.113-8.339 3.972-10.004l41.05-17.714c3.863-1.667 8.34.114 10.004 3.973 1.666 3.86-.113 8.339-3.972 10.004l-41.05 17.714c-.983.424-2.006.625-3.012.625z" fill="#5ecfb4"/></g></svg>